<svg id="visual" viewBox="0 0 1920 1080" width="1920" height="1080" xmlns="http://www.w3.org/2000/svg" xmlns:xlink="http://www.w3.org/1999/xlink" version="1.1"><rect width="1920" height="1080" fill="#ffffff"></rect><g><g transform="translate(1103 724)"><path d="M0 -259.5L224.7 -129.7L224.7 129.7L0 259.5L-224.7 129.7L-224.7 -129.7Z" fill="none" stroke="#7ba9ff" stroke-width="6"></path></g><g transform="translate(557 14)"><path d="M0 -166L143.8 -83L143.8 83L0 166L-143.8 83L-143.8 -83Z" fill="none" stroke="#7ba9ff" stroke-width="6"></path></g><g transform="translate(1897 353)"><path d="M0 -152L131.6 -76L131.6 76L0 152L-131.6 76L-131.6 -76Z" fill="none" stroke="#7ba9ff" stroke-width="6"></path></g><g transform="translate(394 1034)"><path d="M0 -210L181.9 -105L181.9 105L0 210L-181.9 105L-181.9 -105Z" stroke="#7ba9ff" fill="none" stroke-width="6"></path></g></g></svg>